<svg width="40" height="40" fill="none" xmlns="http://www.w3.org/2000/svg"><circle cx="20" cy="20" r="19.5" fill="#fff" stroke="#000"/><path d="M23.699 12.003L21.779 12c-2.155 0-3.548 1.449-3.548 3.691v1.703h-1.93A.304.304 0 0016 17.7v2.466c0 .169.135.305.302.305h1.929v6.223c0 .17.135.306.302.306h2.517a.304.304 0 00.302-.306v-6.223h2.256a.304.304 0 00.301-.305l.001-2.466a.308.308 0 00-.088-.217.3.3 0 00-.214-.09h-2.256v-1.442c0-.694.163-1.046 1.054-1.046h1.292a.304.304 0 00.302-.306v-2.29a.304.304 0 00-.301-.306z" fill="#000"/></svg>