<svg width="40" height="40" fill="none" xmlns="http://www.w3.org/2000/svg"><circle cx="20" cy="20" r="19.5" fill="#fff" stroke="#000"/><path fill-rule="evenodd" clip-rule="evenodd" d="M12 17.4c0-2.25 0-3.375.573-4.163.185-.255.409-.479.664-.664C14.025 12 15.15 12 17.4 12h4.2c2.25 0 3.375 0 4.163.573.255.185.479.409.664.664C27 14.025 27 15.15 27 17.4v4.2c0 2.25 0 3.375-.573 4.163a2.988 2.988 0 01-.664.664C24.975 27 23.85 27 21.6 27h-4.2c-2.25 0-3.375 0-4.163-.573a3.006 3.006 0 01-.664-.664C12 24.975 12 23.85 12 21.6v-4.2zm7.5-1.87a3.97 3.97 0 100 7.941 3.97 3.97 0 000-7.941zm0 6.452a2.485 2.485 0 01-2.482-2.482 2.484 2.484 0 012.482-2.48 2.485 2.485 0 012.482 2.481 2.485 2.485 0 01-2.482 2.482zm4.798-6.75a.53.53 0 11-1.059 0 .53.53 0 011.059 0z" fill="#000"/></svg>