<svg width="170" height="48" fill="none" xmlns="http://www.w3.org/2000/svg"><g clip-path="url(#clip0)" fill-rule="evenodd" clip-rule="evenodd" fill="#000"><path d="M38.37.616C40.68.72 45.603.77 53.145.72l1.437-.154c.41-.309.666-.309.769 0l-.308 2.107-.102 2.672-.206.411h-.307l-.103-.051-.103-.257c.052-.874-.05-1.49-.307-1.799-.667-.668-1.385-.976-2.206-.925l-5.643-.103-.154.206v9.713h5.746c.564 0 1.026-.051 1.487-.206l.257-.154.666-.72c.103-.05.206 0 .308.155v.617l-.256 1.696-.154 3.34-.205.206h-.257l-.154-.257c.052-1.388-.513-2.262-1.692-2.621l-.975-.103-4.617-.052-.102.103c-.103 6.733 0 10.69.307 11.872.308.565.565.873.718.873.821.155 1.693.257 2.668.257.154.103.205.206.205.257-.051.206-.154.36-.308.412-4.052-.103-7.694-.103-10.823 0l-.206-.155.052-.41 1.744-.206c.41-.052.718-.514.923-1.388.205-2.313.308-4.111.205-5.396V3.854c-.05-1.028-.205-1.696-.564-1.953-.564-.36-.923-.514-1.231-.514l-1.488-.051c-.205-.052-.307-.206-.256-.36.051-.206.205-.309.462-.36zM91.207 2.62v11.82c.205.257.872.463 2.155.617 1.23.051 2.103 0 2.718-.206 1.59-.925 2.514-2.723 2.72-5.447.05-4.009-1.54-6.373-4.72-7.092-1.642-.154-2.565-.052-2.873.308zM83.872.462l6.617.102 4.463-.102c.975.051 1.898.154 2.77.36 1.847.513 3.129 1.233 3.847 2.21.77.976 1.231 2.158 1.437 3.545.051 1.953-.36 3.65-1.232 5.088-.564.874-1.077 1.542-1.539 1.953l-1.846 1.747 5.694 7.35c1.487 1.798 2.565 2.929 3.18 3.391l.616.411c.821.566 2 .925 3.385.977.206.154.257.36.052.616l-.616.103a61.97 61.97 0 01-5.386-.103c-1.026-.154-2.001-.616-2.924-1.387-.872-.77-1.847-1.902-2.924-3.392l-4.104-6.013c-.205-.308-.462-.514-.718-.565-2-.052-3.13-.052-3.437 0-.102 4.882 0 8.068.308 9.61.308.566.513.823.718.823l2.565.308c.154.36.051.565-.205.616a349.718 349.718 0 00-10.414 0l-.256-.205c-.052-.206 0-.36.102-.36l1.744-.205c.462-.052.77-.514.924-1.44.205-2.26.308-3.75.205-4.47V3.7c-.051-1.028-.205-1.697-.564-1.954-.565-.36-.975-.513-1.231-.513l-1.54-.052c-.204-.051-.307-.205-.256-.41.206-.258.41-.36.564-.31z"/><path d="M114.599.36l7.54 8.325 4.874 4.985 6.566 7.092.205.308h.154l-.308-16.805c-.051-1.388-.308-2.261-.718-2.621l-.77-.411-2.103-.154c-.154-.206-.154-.36 0-.566l.462-.103 5.643.103 2.924-.103.41.206v.411l-.205.103c-.975-.051-1.59.103-2.001.411l-.461.514c-.206.565-.308 1.336-.308 2.364l-.411 23.692c-.051.308-.154.462-.256.514a1.113 1.113 0 01-1.026-.412c-1.847-1.85-6.258-6.372-13.235-13.67l-5.95-6.63-.103-.05.41 16.393c.154 1.49.411 2.364.719 2.673l.307.257 1.026.257c1.026-.052 1.539.051 1.591.205.051.411-.257.566-.821.566l-5.027-.103-3.745.051c-.154 0-.257-.051-.257-.206-.051-.205 0-.36.103-.41.205-.103.667-.155 1.385-.103l.872-.206c.564-.308.872-1.336.872-3.032l.257-20.762.102-3.084h1.283zM19.903 45.02s0 .05 0 0c.41.05.667.05.821 0 .36-.052.667-.206.82-.463.104-.154.155-.36.155-.566 0-.77-.462-1.13-1.437-1.13h-.256s-.051 0-.051.051v2.107h-.052zm.462-2.519c.718 0 1.231.103 1.539.36.36.257.564.617.564 1.079 0 .514-.256.925-.77 1.182a1.537 1.537 0 01-.512.206c.256.154.513.41.77.873l.666 1.337.052.05.564.052s.051 0 .051.052v.205c0 .052 0 .052-.051.052h-1.231c-.052 0-.052 0-.052-.052l-.667-1.439c-.307-.668-.769-1.028-1.282-1.028h-.103s-.05 0-.05.052v2.107s0 .051.05.051l.77.052c.051 0 .051 0 .051.051v.206c0 .051 0 .051-.051.051h-2.206c-.051 0-.051 0-.051-.051v-.206c0-.051 0-.051.051-.051l.667-.052s.051 0 .051-.051v-4.574c0-.051 0-.051-.051-.051l-.667-.155c-.051 0-.051 0-.051-.051v-.206s0-.05.051-.05h1.898zm9.49 0c.051 0 .051 0 0 0l.051 1.285c0 .051 0 .051-.05.051h-.309s-.051 0-.051-.051l-.154-.925s0-.052-.051-.052h-1.796c-.05 0-.05 0-.05.052v1.953c0 .051 0 .051.05.051h1.078c.051 0 .051 0 .051-.051l.103-.668s0-.052.05-.052h.206c.051 0 .051 0 .051.052v1.747c0 .051 0 .051-.05.051h-.206c-.051 0-.051 0-.051-.051l-.103-.668s0-.052-.051-.052h-1.078c-.05 0-.05 0-.05.052v2.158c0 .052 0 .052.05.052h1.95c.051 0 .051 0 .051-.052l.154-.873s0-.052.051-.052h.308c.051 0 .051 0 .051.052v1.233c0 .051 0 .051-.051.051H26.11c-.05 0-.05 0-.05-.051v-.206c0-.05 0-.05.05-.05l.667-.052s.052 0 .052-.052v-4.625h-.052l-.667-.051c-.05 0-.05 0-.05-.052v-.205s0-.052.05-.052h3.745v.103zm5.848 1.388s-.051-.052 0 0l-.205-.925s0-.052-.051-.052a1.635 1.635 0 00-.719-.154c-.256 0-.513.051-.718.206a.733.733 0 00-.308.616c0 .257.103.463.308.668.103.103.36.257.616.36l.513.257c.41.206.718.36.872.565.205.257.359.566.359.925 0 .514-.205.926-.616 1.234-.359.257-.82.411-1.385.411-.256 0-.615-.051-.974-.103-.103 0-.206-.051-.308-.103 0 0-.051 0-.051-.051v-1.182s0-.051.05-.051h.309c.05 0 .05 0 .05.051l.155.925c.205.103.462.154.77.154.307 0 .615-.051.82-.205.257-.154.36-.411.36-.72 0-.41-.309-.77-.873-1.079l-.513-.257a2.846 2.846 0 01-.872-.565 1.128 1.128 0 01-.359-.874c0-.36.103-.617.308-.874.205-.257.461-.41.77-.514.204-.05.41-.102.666-.102.308 0 .616.051.923.102.103 0 .206.052.308.103 0 0 .051 0 .051.052v1.182c0 .051 0 .051-.05.051l-.206-.051zm7.849-1.388c.05 0 .05 0 0 0l.05 1.285c0 .051 0 .051-.05.051h-.308s-.051 0-.051-.051l-.103-.874s0-.051-.051-.051h-1.283s-.051 0-.051.051v4.574s0 .052.051.052l.77.05c.05 0 .05 0 .05.052v.206c0 .051 0 .051-.05.051h-2.258c-.05 0-.05 0-.05-.051v-.206s0-.051.05-.051l.77-.051s.051 0 .051-.052v-4.574c0-.051 0-.051-.051-.051h-1.282c-.052 0-.052 0-.052.051l-.205.874s0 .051-.051.051h-.308s-.051 0-.051-.051v-1.233s0-.052.051-.052h4.412zm5.283 1.08h-.051l-.77 1.9c0 .052 0 .052.052.052h1.436c.051 0 .051 0 .051-.051l-.718-1.902zm.77 4.316s0-.051 0 0l-.052-.257c0-.051 0-.051.052-.051l.615-.051h.052v-.052l-.565-1.542h-1.846l-.616 1.593c0 .052 0 .052.051.052l.616.051c.051 0 .051 0 .051.052v.205c0 .052 0 .052-.051.052h-1.744s-.052 0-.052-.052v-.205c0-.052 0-.052.052-.052l.667-.051h.05l2.002-5.088h.307l1.847 5.088h.051l.616.051s.051 0 .051.052v.205c0 .052 0 .052-.051.052l-2.103-.052zm5.437-4.985c0-.051 0-.051 0 0l-.718-.103s-.051 0-.051-.051v-.206s0-.05.051-.05h2.154c.052 0 .052 0 .052.05v.206c0 .051 0 .051-.052.051l-.718.052c-.05 0-.05 0-.05.051v2.878c0 .411 0 .72.05.925.052.154.103.309.206.411.256.309.666.463 1.18.463.564 0 .974-.206 1.282-.668.102-.154.154-.36.154-.668v-3.341c0-.051 0-.051-.052-.051l-.666-.052c-.052 0-.052 0-.052-.051v-.206s0-.05.052-.05h1.846c.052 0 .052 0 .052.05v.206c0 .051 0 .051-.052.051l-.667.052s-.05 0-.05.051v2.775c0 .874-.155 1.49-.514 1.85-.359.36-.82.514-1.487.514-.719 0-1.232-.154-1.59-.514a1.067 1.067 0 01-.309-.513c-.102-.257-.102-.514-.102-.874v-3.238h.051zm8.977 2.107s0 .052 0 0c.41.052.667.052.821 0 .36-.051.667-.205.82-.462.103-.154.155-.36.155-.566 0-.77-.462-1.13-1.437-1.13h-.256s-.051 0-.051.051v2.107h-.052zm.462-2.518c.718 0 1.231.103 1.539.36.359.257.564.617.564 1.079 0 .514-.256.925-.77 1.182a1.537 1.537 0 01-.512.206c.256.154.513.41.77.873l.666 1.337.051.05.565.052s.05 0 .05.052v.205c0 .052 0 .052-.05.052h-1.231c-.052 0-.052 0-.052-.052l-.667-1.439c-.307-.668-.77-1.028-1.282-1.028h-.103s-.051 0-.051.052v2.107s0 .051.051.051l.77.052c.051 0 .051 0 .051.051v.206c0 .051 0 .051-.051.051h-2.206c-.051 0-.051 0-.051-.051v-.206c0-.051 0-.051.05-.051l.668-.052s.051 0 .051-.051v-4.574c0-.051 0-.051-.051-.051l-.667-.052c-.051 0-.051 0-.051-.051v-.206s0-.051.05-.051h1.899V42.5zm8.054 1.08h-.052l-.77 1.9c0 .052 0 .052.052.052h1.436c.052 0 .052 0 .052-.051l-.718-1.902zm.77 4.316s0-.051 0 0l-.052-.257c0-.051 0-.051.051-.051l.616-.051h.051v-.052l-.564-1.542h-1.848l-.616 1.593c0 .052 0 .052.052.052l.615.051c.052 0 .052 0 .052.052v.205c0 .052 0 .052-.052.052h-1.744s-.051 0-.051-.052v-.205c0-.052 0-.052.051-.052l.667-.051h.051l2.001-5.088h.308l1.846 5.088h.052l.615.051s.052 0 .052.052v.205c0 .052 0 .052-.052.052l-2.103-.052zm4.718-5.344c0-.052 0-.052 0 0l1.437-.052h.051l2.975 3.906v-3.495c0-.051 0-.051-.05-.051l-.565-.052s-.051 0-.051-.051v-.257s0-.051.05-.051h1.642c.052 0 .052 0 .052.051v.257c0 .051 0 .051-.052.051l-.615.052s-.052 0-.052.051v4.985s0 .052-.05.052h-.206l-3.437-4.574v4.111c0 .052 0 .052.051.052l.565.05c.05 0 .05 0 .05.052v.257c0 .052 0 .052-.05.052h-1.642c-.051 0-.051 0-.051-.052v-.257c0-.051 0-.051.051-.051l.616-.051c.051 0 .051 0 .051-.052v-4.522c0-.052 0-.052-.051-.052l-.667-.051s-.052 0-.052-.052v-.256zm12.62-.052l.051 1.285c0 .051 0 .051-.051.051h-.308s-.051 0-.051-.051l-.154-.925s0-.052-.052-.052h-1.282s-.051 0-.051.052v4.574s0 .051.051.051l.77.052c.05 0 .05 0 .05.05v.206c0 .052 0 .052-.05.052h-2.258c-.051 0-.05 0-.05-.052v-.205s-.001-.051.05-.051l.77-.052s.051 0 .051-.051V42.86c0-.052 0-.052-.051-.052h-1.283c-.05 0-.05 0-.05.052l-.155.925s0 .051-.051.051h-.308s-.051 0-.051-.051v-1.233s0-.052.051-.052h4.412zm3.334 3.546c-.051 0-.051-.051 0 0l-.051-.36c0-.051 0-.051.051-.051h2.154c.052 0 .052 0 .052.051v.36c0 .052 0 .052-.052.052h-2.154v-.052zm7.079-3.186c-.051 0-.051.051 0 0l-.051 2.312s0 .052.051.052h.462c.923 0 1.385-.411 1.385-1.234 0-.41-.154-.668-.462-.873-.256-.154-.615-.257-1.026-.257h-.359zm.513-.36c.513 0 .872.052 1.129.154.666.206.974.668.974 1.388 0 .462-.205.873-.615 1.13a2.242 2.242 0 01-1.283.412l-.769-.155v2.005s0 .051.051.051l.77.052c.051 0 .051 0 .051.05v.206c0 .052 0 .052-.051.052H99.62c-.052 0-.052 0-.052-.052v-.205c0-.051 0-.051.052-.051l.667-.052s.051 0 .051-.051V42.86c0-.052 0-.052-.051-.052l-.667-.051c-.052 0-.052 0-.052-.051V42.5s0-.051.052-.051h1.949v.051zm7.233 0s.051 0 0 0l.051.257c0 .051 0 .051-.051.051l-.667.052s-.051 0-.051.051v4.574c0 .052 0 .052.051.052l.667.05c.051 0 .051 0 .051.052v.206c0 .051 0 .051-.051.051h-2.154c-.052 0-.052 0-.052-.051v-.206c0-.051 0-.051.052-.051l.666-.051s.052 0 .052-.052v-4.574c0-.051 0-.051-.052-.051l-.666-.052c-.052 0-.052 0-.052-.051v-.206s0-.05.052-.05h2.154zm3.745.36c-.052 0-.052 0 0 0l-.205.925s0 .051-.052.051h-.308s-.051 0-.051-.051v-1.233s0-.052.051-.052h3.95l.103.206-3.386 4.728h2.822c.051 0 .051 0 .051-.052l.154-.925s0-.051.051-.051h.308c.051 0 .051 0 .051.051v1.234c0 .051 0 .051-.051.051h-4.155l-.103-.206v-.05l3.335-4.729h-2.565v.103zm7.335 0s-.051 0 0 0l-.205.925s0 .051-.051.051h-.308s-.051 0-.051-.051v-1.233s0-.052.051-.052h3.95l.103.206-3.386 4.728h2.821c.052 0 .052 0 .052-.052l.153-.925s0-.051.052-.051h.308c.051 0 .051 0 .051.051v1.234c0 .051 0 .051-.051.051h-4.156l-.102-.206v-.05l3.334-4.729h-2.565v.103zm10.465-.36s.051 0 0 0l.051 1.285c0 .051 0 .051-.051.051h-.308c-.051 0-.051 0-.051-.051l-.154-.925s0-.052-.051-.052h-1.796c-.051 0-.051 0-.051.052v1.953c0 .051 0 .051.051.051h1.078c.051 0 .051 0 .051-.051l.102-.668s0-.052.052-.052h.205c.051 0 .051 0 .051.052v1.747c0 .051 0 .051-.051.051h-.205c-.052 0-.052 0-.052-.051l-.102-.668s0-.052-.051-.052h-1.078c-.051 0-.051 0-.051.052v2.158c0 .052 0 .052.051.052h1.95c.051 0 .051 0 .051-.052l.154-.873s0-.052.051-.052h.308c.051 0 .051 0 .051.052v1.233c0 .051 0 .051-.051.051h-3.899c-.051 0-.051 0-.051-.051v-.206c0-.05 0-.05.051-.05l.667-.052s.051 0 .051-.052v-4.625h-.051l-.667-.051c-.051 0-.051 0-.051-.052v-.205s0-.052.051-.052h3.745v.103zm4.668 2.518s0 .052 0 0c.41.052.667.052.821 0 .359-.051.667-.205.821-.462.102-.154.153-.36.153-.566 0-.77-.461-1.13-1.436-1.13h-.256s-.052 0-.052.051v2.107h-.051zm.41-2.518c.719 0 1.232.103 1.539.36.359.257.565.617.565 1.079 0 .514-.257.925-.77 1.182a1.54 1.54 0 01-.513.206c.257.154.513.41.77.873l.667 1.337.051.05.564.052s.051 0 .051.052v.205c0 .052 0 .052-.051.052h-1.231c-.051 0-.051 0-.051-.052l-.667-1.439c-.308-.668-.77-1.028-1.283-1.028h-.102s-.052 0-.052.052v2.107s0 .051.052.051l.769.052c.052 0 .052 0 .052.051v.206c0 .051 0 .051-.052.051h-2.206c-.051 0-.051 0-.051-.051v-.206c0-.051 0-.051.051-.051l.667-.052s.052 0 .052-.051v-4.574c0-.051 0-.051-.052-.051l-.667-.052c-.051 0-.051 0-.051-.051v-.206s0-.051.051-.051h1.898V42.5zm7.849 0c.051 0 .051 0 0 0l.051.257c0 .051 0 .051-.051.051l-.667.052s-.051 0-.051.051v4.574c0 .052 0 .052.051.052l.667.05c.051 0 .051 0 .051.052v.206c0 .051 0 .051-.051.051h-2.155c-.051 0-.051 0-.051-.051v-.206c0-.051 0-.051.051-.051l.667-.051s.052 0 .052-.052v-4.574c0-.051 0-.051-.052-.051l-.667-.052c-.051 0-.051 0-.051-.051v-.206s0-.05.051-.05h2.155zm5.437 1.08h-.051l-.769 1.9c0 .052 0 .052.051.052h1.436c.052 0 .052 0 .052-.051l-.719-1.902zm.77 4.316s-.051-.051 0 0l-.051-.257c0-.051 0-.051.051-.051l.616-.051h.051v-.052l-.564-1.542h-1.847l-.616 1.593c0 .052 0 .052.052.052l.615.051c.051 0 .051 0 .051.052v.205c0 .052 0 .052-.051.052h-1.744s-.051 0-.051-.052v-.205c0-.052 0-.052.051-.052l.667-.051h.051l2.001-5.088h.308l1.846 5.088h.052l.615.051s.051 0 .051.052v.205c0 .052 0 .052-.051.052l-2.103-.052zM61.352 12.385c-.051.873 0 2.055.154 3.494.256 1.85.77 3.495 1.487 4.883.975 1.85 2.206 3.289 3.694 4.265 1.128.617 2.513 1.08 4.104 1.388 1.641.102 2.975-.103 4.103-.617 2.873-1.336 4.463-4.368 4.874-9.148.205-4.42-.565-7.914-2.36-10.484-1.693-2.312-4.001-3.649-6.874-4.06-1.744-.051-3.129.155-4.206.617-3.078 1.542-4.77 4.728-4.976 9.662zM69.662.41c2.411-.102 4.617.155 6.566.823 5.233 1.85 8.003 5.704 8.413 11.563.154 4.677-1.18 8.53-4.053 11.512-1.487 1.439-3.026 2.415-4.668 3.032a16.72 16.72 0 01-4.719.976c-2.257.052-4.309-.205-6.104-.873-5.079-2.005-7.951-6.116-8.516-12.232-.154-4.265 1.129-7.863 3.847-10.792C62.84 1.952 65.918.616 69.662.41zm73.715 11.975c-.052.873 0 2.055.153 3.494.257 1.85.77 3.495 1.488 4.883.975 1.85 2.206 3.289 3.693 4.265 1.129.617 2.514 1.08 4.104 1.388 1.642.102 2.976-.103 4.104-.617 2.873-1.336 4.463-4.368 4.873-9.148.206-4.42-.564-7.914-2.359-10.484-1.693-2.312-4.002-3.649-6.874-4.06-1.744-.051-3.129.155-4.207.617-3.077 1.542-4.77 4.728-4.975 9.662zM151.738.41c2.411-.102 4.617.155 6.566.823 5.181 1.85 8.003 5.756 8.362 11.614.154 4.677-1.18 8.531-4.053 11.512-1.488 1.439-3.026 2.415-4.668 3.032a16.712 16.712 0 01-4.719.977c-2.257.051-4.309-.206-6.105-.874-5.078-2.004-7.951-6.116-8.515-12.231-.154-4.266 1.128-7.863 3.847-10.793 2.411-2.518 5.54-3.854 9.285-4.06zM0 35.152h23.956a11.887 11.887 0 01-.513-1.439H0v1.439zm30.317 0H170v-1.439H29.701c.206.565.41 1.08.616 1.439z"/><path d="M12.568 10.947c-.77 0-1.436-.412-1.95-1.234-.461-.72-.512-1.336-.102-1.85.36-.514.872-.77 1.59-.77.821 0 1.54.462 2.206 1.438.462.668.462 1.285-.051 1.747-.462.463-.975.668-1.693.668zm2.77 18.244c.257 0 .513 0 .77-.052.05 0 .05 0 .102-.051.154-.052.36-.103.513-.154.36-.155.718-.412 1.077-.72.616-.617 1.54-1.901 2.72-3.854a65.158 65.158 0 002.615-4.728c-.205-3.752.308-7.863 1.488-12.232 1.385-4.933 2.77-7.4 4.36-7.4.718 0 1.385.411 1.95 1.233 1.436 2.107 1.385 5.5-.154 10.176-.975 2.93-2.668 6.218-4.31 8.994-.359.616-.256 4.779.103 8.582.257 2.878 1.129 6.732 2.514 7.812.41.308.923.873 1.795.873.205 0 .41.154.564.411.206.36-.102.617-.872.514-1.487-.257-2.052-.514-3.078-1.541-2.051-2.056-3.744-9.405-3.95-15.213l-2.667 4.729c-1.385 1.953-2.719 3.083-3.95 3.392-.102 0-.205.05-.308.05-.461.052-.923.104-1.436.052h-.051c-1.18 0-2.206-.616-3.027-1.799-.974-1.438-1.18-4.368-.718-8.89l-2.667 5.653c-1.54 3.34-3.232 5.036-4.925 5.036-.205 0-.359-.102-.513-.308-.205-.308-.154-.514.103-.565.872-.206 1.539-.566 2-1.028.616-.617 1.642-2.313 3.078-5.14l2.873-6.578c.256-.102.615-.154 1.18-.154.564 0 1.026.309 1.487.977.462.72.513 2.62.052 5.756-.462 3.134-.513 4.933-.103 5.498.205.36.667.566 1.385.669zM29.342.77c-.615 0-1.333 2.57-2.103 7.709-.718 4.933-1.026 8.325-.923 10.175 4.257-8.942 5.54-14.8 3.744-17.473-.205-.257-.461-.411-.718-.411z"/></g><defs><clipPath id="clip0"><path fill="#fff" d="M0 0h170v48H0z"/></clipPath></defs></svg>