<svg width="40" height="40" fill="none" xmlns="http://www.w3.org/2000/svg"><circle cx="20" cy="20" r="19.5" fill="#fff" stroke="#000"/><path d="M29.15 14.35c-.542-.983-1.131-1.164-2.33-1.232-1.198-.083-4.209-.117-6.817-.117-2.614 0-5.627.034-6.823.115-1.196.07-1.786.25-2.334 1.234-.559.98-.846 2.671-.846 5.647v.01c0 2.963.287 4.666.846 5.637.548.982 1.136 1.16 2.333 1.243 1.197.072 4.21.113 6.824.113 2.608 0 5.62-.041 6.818-.111 1.199-.083 1.788-.261 2.33-1.244.564-.971.849-2.674.849-5.637v-.01c0-2.977-.285-4.667-.85-5.648zM17.5 23.819v-7.637l6.25 3.819-6.25 3.818z" fill="#000"/></svg>